<svg aria-hidden="true" style="position:absolute;width:0;height:0;overflow:hidden" xmlns="http://www.w3.org/2000/svg">
  <defs>
    <symbol id="icon-close" viewBox="0 0 32 32">
      <path d="M16 12.445 28.445 0 32 3.555 19.555 16 32 28.445 28.445 32 16 19.555 3.555 32 0 28.445 12.445 16 0 3.555 3.555 0 16 12.445z"/>
    </symbol>
    <symbol id="icon-github" viewBox="0 0 31 32">
      <path d="M15.36 3.2C8.288 3.2 2.56 8.928 2.56 16a12.795 12.795 0 0 0 8.752 12.144c.64.111.879-.273.879-.609 0-.303-.017-1.311-.017-2.383-3.215.593-4.047-.783-4.303-1.504-.145-.369-.768-1.504-1.312-1.809-.448-.239-1.088-.832-.017-.847 1.009-.017 1.728.928 1.969 1.312 1.152 1.935 2.993 1.391 3.727 1.056.113-.832.448-1.391.817-1.711-2.848-.32-5.824-1.425-5.824-6.321 0-1.393.495-2.543 1.312-3.441-.128-.32-.576-1.632.128-3.392 0 0 1.071-.335 3.52 1.313a11.894 11.894 0 0 1 3.2-.433c1.088 0 2.176.143 3.2.431 2.447-1.664 3.52-1.311 3.52-1.311.704 1.76.256 3.072.128 3.392.815.896 1.312 2.031 1.312 3.439 0 4.913-2.991 6.001-5.839 6.321.463.399.864 1.167.864 2.368 0 1.711-.017 3.087-.017 3.52 0 .335.241.735.881.607a12.822 12.822 0 0 0 8.72-12.143c0-7.072-5.728-12.8-12.8-12.8z"/>
    </symbol>
    <symbol id="icon-linkedin" viewBox="0 0 32 32">
      <path d="M24.448 24.452h-3.554v-5.569c0-1.328-.027-3.037-1.852-3.037-1.853 0-2.136 1.445-2.136 2.939v5.667h-3.554V13h3.414v1.561h.046c.477-.9 1.637-1.85 3.37-1.85 3.601 0 4.267 2.37 4.267 5.455v6.286h-.001zM9.338 11.433c-1.144 0-2.063-.926-2.063-2.065s.92-2.063 2.063-2.063a2.064 2.064 0 0 1 0 4.128zm1.782 13.019H7.556V13h3.564v11.452zM26.226 4H5.772c-.979 0-1.771.774-1.771 1.729v20.542c0 .956.792 1.729 1.771 1.729h20.451c.978 0 1.778-.773 1.778-1.729V5.729c0-.955-.8-1.729-1.778-1.729h.003z"/>
    </symbol>
    <symbol id="icon-menu" viewBox="0 0 36 32">
      <path d="M0 0h36v4H0V0zm0 14h36v4H0v-4zm0 14h36v4H0v-4z"/>
    </symbol>
    <symbol id="icon-telegram" viewBox="0 0 32 32">
      <path d="M2.863 15.747c6.997-3.048 11.662-5.058 13.996-6.029 6.665-2.772 8.05-3.254 8.953-3.27.199-.003.643.046.93.279.243.197.31.463.342.65s.072.612.04.945c-.361 3.795-1.924 13.004-2.719 17.255-.336 1.799-.999 2.401-1.64 2.461-1.394.128-2.452-.921-3.802-1.806-2.112-1.385-3.306-2.247-5.356-3.598-2.37-1.561-.833-2.42.517-3.822.353-.367 6.494-5.953 6.613-6.459.015-.063.029-.3-.112-.424s-.347-.082-.497-.048c-.212.048-3.586 2.278-10.123 6.691-.958.658-1.825.978-2.603.961-.857-.019-2.505-.485-3.731-.883-1.503-.489-2.698-.747-2.594-1.577.054-.432.649-.874 1.785-1.326z"/>
    </symbol>
    <symbol id="icon-comment" viewBox="0 0 32 32">
      <path d="M6.572 25.428A13.288 13.288 0 0 1 2.667 16C2.667 8.636 8.636 2.667 16 2.667S29.333 8.636 29.333 16 23.364 29.333 16 29.333H2.667l3.905-3.905zm4.095-8.095a5.334 5.334 0 0 0 10.666 0H10.666z"/>
    </symbol>
    <symbol id="icon-custom-point" viewBox="0 0 32 32">
      <path d="M27.556 15.546 6.223 30.657V.435l21.333 15.111z"/>
    </symbol>
    <symbol id="icon-arrow" viewBox="0 0 32 32">
      <path d="M18.944 16.033 6.759 3.848 10.24.367l15.665 15.665L10.24 31.697l-3.481-3.481 12.185-12.185z"/>
    </symbol>
    <symbol id="icon-file" viewBox="0 0 32 32">
      <path d="M2.723 2.15h27.482a1.53 1.53 0 0 1 1.527 1.527v24.428a1.53 1.53 0 0 1-1.527 1.527H2.723a1.53 1.53 0 0 1-1.527-1.527V3.677A1.53 1.53 0 0 1 2.723 2.15zm6.108 19.085v-6.107l3.054 3.054 3.054-3.054v6.107h3.054V10.548h-3.054l-3.054 3.054-3.054-3.054H5.777v10.687h3.054zm16.794-4.581v-6.107h-3.054v6.107h-3.054l4.58 4.58 4.58-4.58h-3.054z"/>
    </symbol>
    <symbol id="icon-folder" viewBox="0 0 32 32">
      <path d="M30.16 9.609v17.333a1.443 1.443 0 0 1-1.444 1.444h-26a1.443 1.443 0 0 1-1.444-1.444V8.164h27.445a1.443 1.443 0 0 1 1.444 1.444zM16.314 5.276H1.272V3.832a1.443 1.443 0 0 1 1.444-1.444h10.709l2.889 2.889z"/>
    </symbol>
    <symbol id="icon-link" viewBox="0 0 32 32">
      <path d="M12.444 5.333v3.556H3.555v19.556h19.556v-8.889h3.556v10.667a1.776 1.776 0 0 1-1.778 1.778H1.778A1.781 1.781 0 0 1 0 30.223V7.112a1.776 1.776 0 0 1 1.778-1.778h10.667zM32 0v14.222h-3.556V6.067L14.59 19.923l-2.514-2.514L25.928 3.555h-8.151V-.001h14.222z"/>
    </symbol>
    <symbol id="icon-mail" viewBox="0 0 34 32">
      <path d="M1.622 1.098h29.199a1.623 1.623 0 0 1 1.622 1.622v25.955a1.623 1.623 0 0 1-1.622 1.622H1.622A1.623 1.623 0 0 1 0 28.675V2.72a1.623 1.623 0 0 1 1.622-1.622zm14.697 14.085L5.917 6.35 3.816 8.822l12.523 10.633L28.637 8.813l-2.122-2.454-10.197 8.823z"/>
    </symbol>
    <symbol id="icon-phone" viewBox="0 0 30 32">
      <path d="M28.837 23.192v5.665a1.602 1.602 0 0 1-1.49 1.599c-.7.048-1.272.074-1.714.074C11.475 30.53 0 19.054 0 4.897c0-.442.024-1.014.074-1.714a1.6 1.6 0 0 1 1.599-1.49h5.665a.8.8 0 0 1 .798.721c.037.368.07.662.103.884a22.273 22.273 0 0 0 1.935 6.41.73.73 0 0 1-.236.908l-3.457 2.47a20.901 20.901 0 0 0 10.965 10.965l2.467-3.451a.743.743 0 0 1 .918-.239 22.26 22.26 0 0 0 6.408 1.93c.223.032.516.067.881.103a.8.8 0 0 1 .719.797h-.002z"/>
    </symbol>
  </defs>
</svg>
