<svg aria-hidden="true" style="position:absolute;width:0;height:0;overflow:hidden" xmlns="http://www.w3.org/2000/svg">
  <defs>
    <symbol id="icon-close" viewBox="0 0 32 32">
      <path d="M16 12.445 28.445 0 32 3.555 19.555 16 32 28.445 28.445 32 16 19.555 3.555 32 0 28.445 12.445 16 0 3.555 3.555 0 16 12.445z"/>
    </symbol>
    <symbol id="icon-github" viewBox="0 0 31 32">
      <path d="M15.36 3.2C8.288 3.2 2.56 8.928 2.56 16a12.795 12.795 0 0 0 8.752 12.144c.64.111.879-.273.879-.609 0-.303-.017-1.311-.017-2.383-3.215.593-4.047-.783-4.303-1.504-.145-.369-.768-1.504-1.312-1.809-.448-.239-1.088-.832-.017-.847 1.009-.017 1.728.928 1.969 1.312 1.152 1.935 2.993 1.391 3.727 1.056.113-.832.448-1.391.817-1.711-2.848-.32-5.824-1.425-5.824-6.321 0-1.393.495-2.543 1.312-3.441-.128-.32-.576-1.632.128-3.392 0 0 1.071-.335 3.52 1.313a11.894 11.894 0 0 1 3.2-.433c1.088 0 2.176.143 3.2.431 2.447-1.664 3.52-1.311 3.52-1.311.704 1.76.256 3.072.128 3.392.815.896 1.312 2.031 1.312 3.439 0 4.913-2.991 6.001-5.839 6.321.463.399.864 1.167.864 2.368 0 1.711-.017 3.087-.017 3.52 0 .335.241.735.881.607a12.822 12.822 0 0 0 8.72-12.143c0-7.072-5.728-12.8-12.8-12.8z"/>
    </symbol>
    <symbol id="icon-linkedin" viewBox="0 0 32 32">
      <path d="M24.448 24.452h-3.554v-5.569c0-1.328-.027-3.037-1.852-3.037-1.853 0-2.136 1.445-2.136 2.939v5.667h-3.554V13h3.414v1.561h.046c.477-.9 1.637-1.85 3.37-1.85 3.601 0 4.267 2.37 4.267 5.455v6.286h-.001zM9.338 11.433c-1.144 0-2.063-.926-2.063-2.065s.92-2.063 2.063-2.063a2.064 2.064 0 0 1 0 4.128zm1.782 13.019H7.556V13h3.564v11.452zM26.226 4H5.772c-.979 0-1.771.774-1.771 1.729v20.542c0 .956.792 1.729 1.771 1.729h20.451c.978 0 1.778-.773 1.778-1.729V5.729c0-.955-.8-1.729-1.778-1.729h.003z"/>
    </symbol>
    <symbol id="icon-menu" viewBox="0 0 36 32">
      <path d="M0 0h36v4H0V0zm0 14h36v4H0v-4zm0 14h36v4H0v-4z"/>
    </symbol>
    <symbol id="icon-telegram" viewBox="0 0 32 32">
      <path d="M2.863 15.747c6.997-3.048 11.662-5.058 13.996-6.029 6.665-2.772 8.05-3.254 8.953-3.27.199-.003.643.046.93.279.243.197.31.463.342.65s.072.612.04.945c-.361 3.795-1.924 13.004-2.719 17.255-.336 1.799-.999 2.401-1.64 2.461-1.394.128-2.452-.921-3.802-1.806-2.112-1.385-3.306-2.247-5.356-3.598-2.37-1.561-.833-2.42.517-3.822.353-.367 6.494-5.953 6.613-6.459.015-.063.029-.3-.112-.424s-.347-.082-.497-.048c-.212.048-3.586 2.278-10.123 6.691-.958.658-1.825.978-2.603.961-.857-.019-2.505-.485-3.731-.883-1.503-.489-2.698-.747-2.594-1.577.054-.432.649-.874 1.785-1.326z"/>
    </symbol>
    <symbol id="icon-comment" viewBox="0 0 32 32">
      <path d="M6.572 25.428A13.288 13.288 0 0 1 2.667 16C2.667 8.636 8.636 2.667 16 2.667S29.333 8.636 29.333 16 23.364 29.333 16 29.333H2.667l3.905-3.905zm4.095-8.095a5.334 5.334 0 0 0 10.666 0H10.666z"/>
    </symbol>
    <symbol id="icon-custom-point" viewBox="0 0 32 32">
      <path d="M27.556 15.546 6.223 30.657V.435l21.333 15.111z"/>
    </symbol>
    <symbol id="icon-arrow" viewBox="0 0 32 32">
      <path d="M18.944 16.033 6.759 3.848 10.24.367l15.665 15.665L10.24 31.697l-3.481-3.481 12.185-12.185z"/>
    </symbol>
    <symbol id="icon-file" viewBox="0 0 32 32">
      <path d="M2.723 2.15h27.482a1.53 1.53 0 0 1 1.527 1.527v24.428a1.53 1.53 0 0 1-1.527 1.527H2.723a1.53 1.53 0 0 1-1.527-1.527V3.677A1.53 1.53 0 0 1 2.723 2.15zm6.108 19.085v-6.107l3.054 3.054 3.054-3.054v6.107h3.054V10.548h-3.054l-3.054 3.054-3.054-3.054H5.777v10.687h3.054zm16.794-4.581v-6.107h-3.054v6.107h-3.054l4.58 4.58 4.58-4.58h-3.054z"/>
    </symbol>
    <symbol id="icon-folder" viewBox="0 0 32 32">
      <path d="M30.16 9.609v17.333a1.443 1.443 0 0 1-1.444 1.444h-26a1.443 1.443 0 0 1-1.444-1.444V8.164h27.445a1.443 1.443 0 0 1 1.444 1.444zM16.314 5.276H1.272V3.832a1.443 1.443 0 0 1 1.444-1.444h10.709l2.889 2.889z"/>
    </symbol>
    <symbol id="icon-mail" viewBox="0 0 34 32">
      <path d="M1.622 1.098h29.199a1.623 1.623 0 0 1 1.622 1.622v25.955a1.623 1.623 0 0 1-1.622 1.622H1.622A1.623 1.623 0 0 1 0 28.675V2.72a1.623 1.623 0 0 1 1.622-1.622zm14.697 14.085L5.917 6.35 3.816 8.822l12.523 10.633L28.637 8.813l-2.122-2.454-10.197 8.823z"/>
    </symbol>
    <symbol id="icon-phone" viewBox="0 0 30 32">
      <path d="M28.837 23.192v5.665a1.602 1.602 0 0 1-1.49 1.599c-.7.048-1.272.074-1.714.074C11.475 30.53 0 19.054 0 4.897c0-.442.024-1.014.074-1.714a1.6 1.6 0 0 1 1.599-1.49h5.665a.8.8 0 0 1 .798.721c.037.368.07.662.103.884a22.273 22.273 0 0 0 1.935 6.41.73.73 0 0 1-.236.908l-3.457 2.47a20.901 20.901 0 0 0 10.965 10.965l2.467-3.451a.743.743 0 0 1 .918-.239 22.26 22.26 0 0 0 6.408 1.93c.223.032.516.067.881.103a.8.8 0 0 1 .719.797h-.002z"/>
    </symbol>
    <symbol id="icon-download" viewBox="0 0 32 32">
      <path d="M4 25.333h24v2.667h-24v-2.667zM17.333 17.563l8.095-8.096 1.885 1.887-11.313 11.313-11.313-11.313 1.885-1.887 8.095 8.096v-14.896h2.667v14.896z"></path>
    </symbol>
    <symbol id="icon-star" viewBox="0 0 32 32">
      <path d="M15.259 24.527l-8.909 4.985 1.991-10.013-7.498-6.932 10.139-1.203 4.278-9.272 4.278 9.272 10.139 1.203-7.496 6.932 1.989 10.014-8.909-4.987z"></path>
    </symbol>
    <symbol id="icon-css" viewBox="0 0 31 32">
      <path d="m6.4 4.166-.832 4.275h17.395l-.563 2.765H5.018l-.845 4.262h17.395l-.973 4.877-7.014 2.317-6.08-2.317.422-2.099H3.648l-1.011 5.12 10.048 3.84 11.584-3.84 1.536-7.718.307-1.549 1.971-9.933H6.4z"/>
    </symbol>
    <symbol id="icon-html" viewBox="0 0 31 32">
      <path  d="m15.36 23.594 5.914-1.608.797-8.676H11.553l-.261-2.885h11.041l.291-2.83H8.096l.814 8.548h10.01l-.334 3.668-3.226.854-3.226-.854-.202-2.36H9.026l.421 4.536 5.912 1.606zM3.84 2.886h23.04l-2.077 23.04-9.443 2.56-9.443-2.56L3.84 2.886z"/>
    </symbol>
    <symbol id="icon-react" viewBox="0 0 31 32">
      <path d="M15.36 17.606a1.921 1.921 0 1 1 0-3.842 1.921 1.921 0 0 1 0 3.842zm-.676 3.833c.224.269.449.53.676.78.227-.25.452-.509.676-.78-.451.01-.901.01-1.352 0zm-2.553-.16a26.543 26.543 0 0 1-2.925-.471 14.05 14.05 0 0 0-.218 1.3c-.243 2.026.096 3.258.612 3.555.516.298 1.751-.024 3.386-1.247.337-.252.676-.532 1.016-.838a26.432 26.432 0 0 1-1.871-2.299zm9.383-.471c-.918.205-1.898.364-2.925.471a26.432 26.432 0 0 1-1.871 2.299c.34.307.68.586 1.016.838 1.635 1.222 2.87 1.545 3.386 1.247.516-.297.854-1.528.613-3.555a14.213 14.213 0 0 0-.218-1.3h-.001zm1.856-.496c.739 3.378.351 6.067-1.29 7.014s-4.164-.061-6.72-2.39c-2.556 2.328-5.079 3.336-6.72 2.388s-2.029-3.635-1.292-7.014c-3.295-1.048-5.428-2.73-5.428-4.625s2.134-3.575 5.428-4.626c-.737-3.378-.349-6.067 1.292-7.014s4.164.061 6.72 2.39c2.556-2.328 5.079-3.336 6.72-2.388s2.029 3.635 1.292 7.014c3.295 1.048 5.428 2.73 5.428 4.625s-2.134 3.575-5.428 4.626h-.001zM14.001 7.795a14.281 14.281 0 0 0-1.015-.838C11.351 5.735 10.116 5.412 9.6 5.71c-.516.297-.854 1.528-.613 3.555.051.419.123.852.218 1.3a26.325 26.325 0 0 1 2.926-.471 26.308 26.308 0 0 1 1.871-2.299h-.001zm4.588 2.299c1.027.108 2.007.268 2.925.471.096-.448.169-.883.218-1.3.243-2.026-.096-3.258-.612-3.555-.516-.298-1.751.024-3.386 1.247-.351.264-.69.544-1.016.838a26.308 26.308 0 0 1 1.871 2.299zm-2.553-.16c-.224-.269-.449-.53-.676-.78-.227.25-.452.509-.676.78.451-.01.901-.01 1.352 0zm-5.32 9.214a30.863 30.863 0 0 1-.676-1.17c-.122.329-.234.653-.337.974.329.072.667.137 1.011.196h.001zm2.473.299c1.445.107 2.896.107 4.342 0a29.267 29.267 0 0 0 2.171-3.761 29.403 29.403 0 0 0-2.171-3.761 29.406 29.406 0 0 0-4.342 0 29.267 29.267 0 0 0-2.171 3.761 29.335 29.335 0 0 0 2.171 3.761zm7.491-6.052c.122-.329.234-.653.337-.974a23.404 23.404 0 0 0-1.011-.196c.233.385.458.775.675 1.17zm-12.834-.477c-.435.141-.847.294-1.234.461-1.875.804-2.772 1.713-2.772 2.308s.896 1.504 2.772 2.308c.387.166.799.32 1.234.461.284-.896.636-1.825 1.056-2.769a26.516 26.516 0 0 1-1.056-2.769zm1.856-.497c.104.32.216.645.338.973.217-.394.442-.784.676-1.169-.346.059-.684.124-1.012.196h-.001zm13.172 6.034c.435-.141.847-.294 1.234-.461 1.875-.804 2.772-1.713 2.772-2.308s-.896-1.504-2.772-2.308a14.629 14.629 0 0 0-1.234-.461 26.627 26.627 0 0 1-1.056 2.769c.42.943.772 1.871 1.056 2.769zm-1.856.497c-.104-.32-.216-.645-.338-.973-.217.394-.442.784-.676 1.169.346-.059.684-.124 1.012-.196h.001z"/>
    </symbol>
    <symbol id="icon-node" viewBox="0 0 32 32">
      <path d="M17.183 1.816a2.331 2.331 0 0 0-2.366 0L4.484 7.894a2.332 2.332 0 0 0-1.15 2.011v12.189c0 .827.438 1.592 1.15 2.011l3.498 2.057c1.778 1.046 4.019-.236 4.019-2.299V10.327H9.334v13.536l-3.333-1.961V10.094l10-5.882 10 5.882v11.808l-10 5.882-2.358-1.387-1.352 2.298 2.527 1.486c.73.43 1.636.43 2.366 0l10.333-6.078a2.332 2.332 0 0 0 1.15-2.011V9.903c0-.827-.438-1.592-1.15-2.011L17.184 1.814zM18.667 10c-1.817 0-3.105.468-3.933 1.293a3.32 3.32 0 0 0-.983 2.348c0 .74.209 1.41.642 1.965.417.534.966.865 1.493 1.081.959.394 2.162.524 3.125.627l.116.013c1.109.12 1.938.223 2.507.461.257.107.363.206.406.262.029.037.083.12.083.346 0 .352-.121.579-.497.793-.463.264-1.281.463-2.511.463-1.22 0-2.071-.225-2.557-.562-.378-.262-.656-.663-.583-1.533l-2.657-.223c-.145 1.719.478 3.088 1.722 3.949 1.136.786 2.628 1.036 4.075 1.036 1.436 0 2.789-.219 3.831-.812 1.128-.642 1.845-1.71 1.845-3.111 0-.742-.207-1.414-.636-1.972-.414-.539-.963-.876-1.491-1.097-.971-.406-2.187-.537-3.158-.642l-.092-.01c-1.111-.12-1.943-.22-2.515-.455-.259-.106-.363-.203-.404-.256-.025-.032-.077-.107-.077-.324a.65.65 0 0 1 .199-.46c.163-.162.666-.515 2.05-.515 1.321 0 2.09.14 2.529.401.287.17.597.484.639 1.51l2.665-.107c-.067-1.661-.673-2.943-1.943-3.696-1.117-.663-2.544-.774-3.89-.774z"/>
    </symbol>
    <symbol id="icon-typescript" viewBox="0 0 32 32">
      <path d="M6.667 4A2.667 2.667 0 0 0 4 6.667v18.667a2.667 2.667 0 0 0 2.667 2.667h18.667a2.667 2.667 0 0 0 2.667-2.667V6.667A2.667 2.667 0 0 0 25.334 4H6.667zm0 2h18.667c.367 0 .667.299.667.667v18.667a.668.668 0 0 1-.667.667H6.667A.668.668 0 0 1 6 25.334V6.667C6 6.3 6.299 6 6.667 6zm15.056 8.651c-.495 0-.964.053-1.406.16s-.832.272-1.168.497c-.336.225-.603.514-.798.863s-.292.767-.292 1.253c0 .621.178 1.15.536 1.589s.902.809 1.631 1.113c.287.117.552.232.799.345s.462.23.642.352c.18.121.323.254.427.397a.81.81 0 0 1 .058.863.856.856 0 0 1-.297.299c-.133.085-.296.151-.494.198s-.429.072-.694.072a3.996 3.996 0 0 1-2.571-.949v2.083c.339.173.739.303 1.201.389s.949.129 1.461.129c.499 0 .974-.048 1.423-.143s.842-.252 1.181-.471c.339-.219.607-.505.805-.859s.296-.792.296-1.313c0-.377-.057-.708-.169-.992s-.276-.538-.488-.759c-.212-.221-.467-.419-.764-.595s-.633-.343-1.006-.499c-.274-.113-.518-.222-.736-.328s-.401-.215-.553-.326c-.152-.111-.269-.228-.352-.352s-.124-.265-.124-.421c0-.143.037-.272.111-.387s.178-.214.313-.296c.134-.082.299-.147.495-.193s.412-.069.651-.069c.173 0 .357.014.551.04a4.179 4.179 0 0 1 1.151.326c.185.083.356.178.512.286v-1.947c-.317-.121-.664-.211-1.039-.27s-.806-.089-1.292-.089zm-11.874.158v1.712h2.65v7.624h2.109v-7.624h2.663v-1.712H9.849z"/>
    </symbol>
    <symbol id="icon-javascript" viewBox="0 0 32 32">
      <path d="m17.779 21.407-1.144 1.584c1.085.968 2.435 1.452 4.048 1.452 1.232-.029 2.171-.347 2.816-.953.655-.616.983-1.349.983-2.2 0-.831-.23-1.516-.689-2.053s-1.232-.968-2.317-1.291c-.9-.274-1.535-.523-1.907-.748-.372-.235-.557-.518-.557-.851 0-.303.152-.548.455-.733s.709-.279 1.217-.279c.372 0 .792.073 1.261.22.469.127.885.332 1.247.616l1.027-1.599c-.9-.724-2.092-1.085-3.579-1.085-1.066 0-1.941.274-2.625.821-.704.548-1.056 1.227-1.056 2.039.01.86.293 1.53.851 2.009.567.479 1.374.87 2.42 1.173.87.274 1.462.548 1.775.821.303.274.455.606.455.997 0 .381-.152.675-.455.88-.313.215-.763.323-1.349.323-.958.01-1.916-.372-2.875-1.144zm-7.374.85a2.909 2.909 0 0 1-.821-.777l-1.379 1.129c.411.694.919 1.178 1.525 1.452.567.254 1.217.381 1.951.381.401 0 .816-.064 1.247-.191s.826-.342 1.188-.645c.635-.508.968-1.34.997-2.493v-7.451h-1.98v7.069c0 .675-.152 1.149-.455 1.423-.303.264-.684.396-1.144.396-.44 0-.816-.098-1.129-.293zM4 8a4 4 0 0 1 4-4h16a4 4 0 0 1 4 4v16a4 4 0 0 1-4 4H8a4 4 0 0 1-4-4V8zm4-1.333c-.736 0-1.333.597-1.333 1.333v16c0 .736.597 1.333 1.333 1.333h16c.736 0 1.333-.597 1.333-1.333V8c0-.736-.597-1.333-1.333-1.333H8z"/>
    </symbol>
  </defs>
</svg>
